<?xml version="1.0" encoding="UTF-8" standalone="no"?>
<svg
   xmlns:dc="http://purl.org/dc/elements/1.1/"
   xmlns:cc="http://web.resource.org/cc/"
   xmlns:rdf="http://www.w3.org/1999/02/22-rdf-syntax-ns#"
   xmlns:svg="http://www.w3.org/2000/svg"
   xmlns="http://www.w3.org/2000/svg"
   xmlns:xlink="http://www.w3.org/1999/xlink"
   xmlns:sodipodi="http://sodipodi.sourceforge.net/DTD/sodipodi-0.dtd"
   xmlns:inkscape="http://www.inkscape.org/namespaces/inkscape"
   width="72pt"
   height="96pt"
   viewBox="0 0 72 96"
   version="1.1"
   id="svg2"
   sodipodi:version="0.32"
   inkscape:version="0.45.1"
   sodipodi:docname="grinder.svg"
   sodipodi:docbase="/home/philipa/workspace/grinder/src/net/grinder/console/swingui/resources"
   inkscape:output_extension="org.inkscape.output.svg.inkscape">
  <sodipodi:namedview
     inkscape:window-height="851"
     inkscape:window-width="860"
     inkscape:pageshadow="2"
     inkscape:pageopacity="0.0"
     guidetolerance="10.0"
     gridtolerance="10.0"
     objecttolerance="10.0"
     borderopacity="1.0"
     bordercolor="#666666"
     pagecolor="#ffffff"
     id="base"
     showguides="true"
     inkscape:guide-bbox="true"
     inkscape:zoom="1"
     inkscape:cx="61.740989"
     inkscape:cy="81.375"
     inkscape:window-x="66"
     inkscape:window-y="45"
     inkscape:current-layer="layer3" />
  <metadata
     id="metadata59">
    <rdf:RDF>
      <cc:Work
         rdf:about="">
        <dc:format>image/svg+xml</dc:format>
        <dc:type
           rdf:resource="http://purl.org/dc/dcmitype/StillImage" />
      </cc:Work>
    </rdf:RDF>
  </metadata>
  <defs
     id="defs4">
    <linearGradient
       id="linearGradient5814">
      <stop
         offset="0"
         id="stop5816"
         style="stop-color:#b73737;stop-opacity:1;" />
      <stop
         offset="0.5"
         id="stop5834"
         style="stop-color:#02ff00;stop-opacity:1;" />
      <stop
         offset="1"
         id="stop5818"
         style="stop-color:#0028ff;stop-opacity:1;" />
    </linearGradient>
    <marker
       id="TriangleOutL"
       inkscape:stockid="TriangleOutL"
       orient="auto"
       style="overflow:visible"
       refX="0.0"
       refY="0.0">
      <path
         transform="scale(0.8)"
         id="path4667"
         style="fill-rule:evenodd;stroke:#000000;stroke-width:1.0pt;marker-start:none"
         d="M 5.77,0.0 L -2.88,5.0 L -2.88,-5.0 L 5.77,0.0 z " />
    </marker>
    <marker
       orient="auto"
       inkscape:stockid="Arrow1Lstart"
       id="Arrow1Lstart"
       style="overflow:visible"
       refX="0.0"
       refY="0.0">
      <path
         transform="scale(0.8) translate(12.5,0)"
         id="path4569"
         style="fill-rule:evenodd;stroke:#000000;stroke-width:1.0pt;marker-start:none"
         d="M 0.0,0.0 L 5.0,-5.0 L -12.5,0.0 L 5.0,5.0 L 0.0,0.0 z " />
    </marker>
    <clipPath
       id="clip0">
      <rect
         height="96"
         id="rect7"
         width="72" />
    </clipPath>
    <marker
       orient="auto"
       inkscape:stockid="Arrow1Lstartw"
       id="Arrow1Lstartw"
       style="overflow:visible"
       refX="0.0"
       refY="0.0">
      <path
         transform="scale(0.8) translate(12.5,0)"
         id="path4773"
         style="marker-start:none;stroke:#00ff33;stroke-width:1.0pt;fill:#00ff33;fill-rule:evenodd"
         d="M 0.0,0.0 L 5.0,-5.0 L -12.5,0.0 L 5.0,5.0 L 0.0,0.0 z " />
    </marker>
    <linearGradient
       inkscape:collect="always"
       id="linearGradient5832"
       x1="-68.099411"
       y1="47.772366"
       x2="-35.963097"
       gradientUnits="userSpaceOnUse"
       xlink:href="#linearGradient5814"
       y2="47.772366" />
    <marker
       id="TriangleOutLB"
       inkscape:stockid="TriangleOutLB"
       orient="auto"
       style="overflow:visible"
       refX="0.0"
       refY="0.0">
      <path
         transform="scale(0.8)"
         id="path5854"
         style="marker-start:none;stroke:url(#linearGradient5832);stroke-width:1.0pt;fill:url(#linearGradient5832);fill-rule:evenodd"
         d="M 5.77,0.0 L -2.88,5.0 L -2.88,-5.0 L 5.77,0.0 z " />
    </marker>
    <linearGradient
       inkscape:collect="always"
       id="linearGradient5925"
       x1="-68.099411"
       y1="47.772366"
       gradientTransform="translate(19.233304,-0.5656854)"
       x2="-35.963097"
       gradientUnits="userSpaceOnUse"
       xlink:href="#linearGradient5814"
       y2="47.772366" />
  </defs>
  <g
     inkscape:groupmode="layer"
     id="layer3"
     inkscape:label="background"
     style="display:inline">
    <path
       d="M 28.567114,23.592266 L 46.244784,18.218254 L 50.770267,23.309423 L 62.932504,25.289322 L 54.871486,39.7143 L 59.679812,46.219683 L 51.335952,45.653997 L 31.395541,46.502525 L 35.355339,37.875823 L 28.567114,23.592266 z "
       id="path8996"
       style="fill:#ebebff;fill-opacity:1;fill-rule:evenodd;stroke:none;stroke-width:1px;stroke-linecap:butt;stroke-linejoin:miter;stroke-opacity:1" />
  </g>
  <g
     inkscape:groupmode="layer"
     id="layer2"
     inkscape:label="foo"
     style="display:inline">
    <path
       d="M 27.57875,21.292284 C 33.187637,19.561007 39.128097,19.522051 44.937637,19.797091 C 45.11737,21.473009 45.165008,23.159548 45.192245,24.844362 C 40.03862,25.024981 34.844864,24.213915 29.738052,25.267611 L 29.352844,24.763842 C 33.194031,21.007601 38.78302,23.914599 43.425369,23.193789 C 43.536865,22.752001 43.759842,21.86841 43.871338,21.426623 C 40.580505,21.018816 37.237717,20.911272 33.937454,21.26578 C 30.23703,21.676211 26.765076,23.331057 23.0103,23.37784 C 18.871078,23.428072 14.725983,23.459017 10.588623,23.322481 C 10.617187,22.995852 10.674301,22.342623 10.702865,22.015993 C 16.325546,22.27933 22.105163,23.035265 27.57875,21.292284 z "
       id="path40"
       style="fill:#5e5eff;fill-rule:nonzero;stroke:none" />
    <path
       d="M 7.8972926,7.3509701 C 10.253082,6.3528461 12.807922,6.4499991 15.241394,7.0912651 C 16.00441,7.7909111 16.688446,8.5610221 17.293472,9.4015981 C 17.191086,13.298296 15.586166,16.851961 14.059799,20.356371 C 19.045288,20.309267 24.023407,19.678362 28.818191,18.290423 C 33.660385,16.876925 38.725403,17.84183 43.665771,17.424731 C 44.200363,16.409014 44.709549,15.380419 45.193344,14.338946 C 45.620178,14.095293 46.473862,13.607973 46.900696,13.364306 C 47.261154,13.542925 47.982086,13.900164 48.342544,14.078783 C 48.992477,17.497347 48.147964,20.909701 47.909851,24.318926 L 47.19696,24.225619 C 46.669174,22.750109 47.773254,20.116015 46.146286,19.42264 C 45.8815,21.239092 45.644134,23.061785 45.192245,24.844362 C 45.165008,23.159548 45.11737,21.473009 44.937637,19.797091 C 39.128097,19.522051 33.187637,19.561007 27.57875,21.292284 C 22.105163,23.035265 16.325546,22.27933 10.702865,22.015993 C 10.17157,21.547274 9.6355436,21.084398 9.0947866,20.627367 L 8.9695586,19.815645 C 8.7746726,18.091418 8.4866026,16.35277 8.6740866,14.614275 C 9.8495016,12.822756 11.665481,11.545138 12.735779,9.6729301 C 10.956528,8.5320001 8.7762446,9.3178431 6.8129726,9.2343921 C 7.0840606,8.7635371 7.6262206,7.8218251 7.8972926,7.3509701 z "
       id="path22"
       style="fill:none;stroke:#b5b5ff;stroke-width:0.1;stroke-linecap:butt;stroke-linejoin:miter;stroke-miterlimit:10" />
    <path
       d="M 7.8972926,7.3509701 C 10.253082,6.3528461 12.807922,6.4499991 15.241394,7.0912651 C 16.00441,7.7909111 16.688446,8.5610221 17.293472,9.4015981 C 17.191086,13.298296 15.586166,16.851961 14.059799,20.356371 C 19.045288,20.309267 24.023407,19.678362 28.818191,18.290423 C 33.660385,16.876925 38.725403,17.84183 43.665771,17.424731 C 44.200363,16.409014 44.709549,15.380419 45.193344,14.338946 C 45.620178,14.095293 46.473862,13.607973 46.900696,13.364306 C 47.261154,13.542925 47.982086,13.900164 48.342544,14.078783 C 48.992477,17.497347 48.147964,20.909701 47.909851,24.318926 L 47.19696,24.225619 C 46.669174,22.750109 47.773254,20.116015 46.146286,19.42264 C 45.8815,21.239092 45.644134,23.061785 45.192245,24.844362 C 45.165008,23.159548 45.11737,21.473009 44.937637,19.797091 C 39.128097,19.522051 33.187637,19.561007 27.57875,21.292284 C 22.105163,23.035265 16.325546,22.27933 10.702865,22.015993 C 10.17157,21.547274 9.6355436,21.084398 9.0947866,20.627367 L 8.9695586,19.815645 C 8.7746726,18.091418 8.4866026,16.35277 8.6740866,14.614275 C 9.8495016,12.822756 11.665481,11.545138 12.735779,9.6729301 C 10.956528,8.5320001 8.7762446,9.3178431 6.8129726,9.2343921 C 7.0840606,8.7635371 7.6262206,7.8218251 7.8972926,7.3509701 z "
       id="path24"
       style="fill:#b5b5ff;fill-rule:nonzero;stroke:none" />
    <path
       d="M 0.9359736,0.4824241 L 72.935974,0.4824241 L 72.935974,96.482424 L 0.9359736,96.482424 L 0.9359736,0.4824241 z "
       id="path10"
       style="fill:none;stroke:#ffffff;stroke-width:0.1;stroke-linecap:butt;stroke-linejoin:miter;stroke-miterlimit:10" />
    <path
       d="M 4.5036466,8.8869041 C 6.3034206,4.3641841 13.427017,3.0868701 16.572159,6.8302481 C 19.976837,9.4150261 18.010651,14.091662 18.757263,17.687823 C 21.819427,18.401827 24.800278,17.407885 27.669037,16.438494 C 34.111191,14.886431 41.476196,16.210024 46.925064,11.739489 C 51.122299,13.349016 50.646652,17.992052 50.796829,21.655825 C 55.053467,22.152132 60.471054,21.040163 63.467667,24.930315 C 63.041183,29.777666 60.07518,34.131609 57.843933,38.398257 C 59.96405,39.967715 62.357284,41.293871 63.903198,43.502657 C 65.268402,45.732012 67.085281,48.08565 66.58316,50.870852 C 65.98146,57.405688 66.352554,63.969286 66.228668,70.519915 C 66.17392,76.97864 67.6725,83.309023 67.985046,89.741732 C 64.778778,86.901705 64.769913,82.434756 64.894592,78.497286 C 65.337738,69.002581 62.522354,59.47661 64.651504,50.051501 C 65.643082,47.773134 63.106369,46.866305 61.564026,45.983492 C 61.756088,46.923372 61.994156,47.851916 62.278244,48.769167 C 60.872803,48.469683 59.541199,47.932619 58.205047,47.422655 C 58.563003,45.408037 59.217255,43.450548 59.83403,41.503206 C 58.56871,40.770601 57.324219,40.004473 56.071335,39.254061 C 58.256286,34.995302 61.881515,31.164965 61.7491,26.062304 L 61.821442,25.311083 C 59.379196,21.406573 53.947143,22.986086 50.123306,21.961992 C 49.578522,19.324938 49.981018,16.384951 48.342544,14.078783 C 47.982086,13.900164 47.261154,13.542925 46.900696,13.364306 C 46.473862,13.607973 45.620178,14.095293 45.193344,14.338946 C 40.755401,18.475268 34.609939,15.461016 29.357696,16.901629 C 25.385284,17.839968 21.345398,19.042696 17.219238,18.412829 C 17.413284,15.41823 18.135605,12.363268 17.293472,9.4015981 C 16.688446,8.5610221 16.00441,7.7909111 15.241394,7.0912651 C 13.156097,5.4213891 9.4178616,4.4928611 7.8972926,7.3509701 C 7.6262206,7.8218251 7.0840606,8.7635371 6.8129726,9.2343921 C 8.7762446,9.3178431 10.956528,8.5320001 12.735779,9.6729301 C 11.665481,11.545138 9.8495016,12.822756 8.6740866,14.614275 C 8.4866026,16.35277 8.7746726,18.091418 8.9695586,19.815645 C 8.6287986,19.099688 7.0977316,16.850191 6.5812376,18.617281 C 6.2350616,20.133852 7.6895596,21.447573 9.0947866,20.627367 C 9.6355436,21.084398 10.17157,21.547274 10.702865,22.015993 C 10.674301,22.342623 10.617187,22.995852 10.588623,23.322481 C 14.725983,23.459017 18.871078,23.428072 23.0103,23.37784 C 26.765076,23.331057 30.23703,21.676211 33.937454,21.26578 C 37.237717,20.911272 40.580505,21.018816 43.871338,21.426623 C 43.759842,21.86841 43.536865,22.752001 43.425369,23.193789 C 38.78302,23.914599 33.194031,21.007601 29.352844,24.763842 L 29.738052,25.267611 C 31.209656,26.84955 32.28215,28.716768 32.928253,30.778902 C 34.113479,34.373385 37.051193,36.992922 38.501129,40.452868 C 37.305572,41.205614 36.102402,41.948199 34.84433,42.59273 C 33.620819,42.336306 32.401245,42.058977 31.165283,41.873903 C 30.072281,42.932589 31.551666,44.248781 31.849716,45.350451 C 31.258575,47.141802 30.024505,48.870867 30.590195,50.847933 C 31.710495,57.451967 30.713898,64.144381 30.524139,70.782305 C 30.639877,73.638735 29.184265,76.106768 28.178543,78.671786 C 27.816559,82.699648 28.606491,86.724474 28.481796,90.758776 C 28.110306,90.66083 27.367325,90.464937 26.995819,90.366991 C 26.514633,86.790591 26.129608,83.17763 26.154373,79.565996 C 26.637909,75.464495 28.470596,71.607699 28.534073,67.434328 C 28.702194,61.372408 28.963989,55.253756 27.932114,49.248232 C 27.46991,46.513781 27.239639,43.102328 29.604874,41.139788 C 31.369949,40.333315 33.270126,39.880114 35.087662,39.208803 C 34.371551,37.459215 33.239181,35.929552 32.03064,34.493365 C 29.445953,31.754427 29.45639,27.69472 27.796661,24.450609 C 21.720459,23.468569 15.515396,24.66469 9.4149926,23.927996 C 5.1520076,20.460406 3.3758846,14.198275 4.5036466,8.8869041 z "
       id="path14"
       style="fill:none;stroke:#8c8ffe;stroke-width:0.1;stroke-linecap:butt;stroke-linejoin:miter;stroke-miterlimit:10" />
    <path
       d="M 4.5036466,8.8869041 C 6.3034206,4.3641841 13.427017,3.0868701 16.572159,6.8302481 C 19.976837,9.4150261 18.010651,14.091662 18.757263,17.687823 C 21.819427,18.401827 24.800278,17.407885 27.669037,16.438494 C 34.111191,14.886431 41.476196,16.210024 46.925064,11.739489 C 51.122299,13.349016 50.646652,17.992052 50.796829,21.655825 C 55.053467,22.152132 60.471054,21.040163 63.467667,24.930315 C 63.041183,29.777666 60.07518,34.131609 57.843933,38.398257 C 59.96405,39.967715 62.357284,41.293871 63.903198,43.502657 C 65.268402,45.732012 67.085281,48.08565 66.58316,50.870852 C 65.98146,57.405688 66.352554,63.969286 66.228668,70.519915 C 66.17392,76.97864 67.6725,83.309023 67.985046,89.741732 C 64.778778,86.901705 64.769913,82.434756 64.894592,78.497286 C 65.337738,69.002581 62.522354,59.47661 64.651504,50.051501 C 65.643082,47.773134 63.106369,46.866305 61.564026,45.983492 C 61.756088,46.923372 61.994156,47.851916 62.278244,48.769167 C 60.872803,48.469683 59.541199,47.932619 58.205047,47.422655 C 58.563003,45.408037 59.217255,43.450548 59.83403,41.503206 C 58.56871,40.770601 57.324219,40.004473 56.071335,39.254061 C 58.256286,34.995302 61.881515,31.164965 61.7491,26.062304 L 61.821442,25.311083 C 59.379196,21.406573 53.947143,22.986086 50.123306,21.961992 C 49.578522,19.324938 49.981018,16.384951 48.342544,14.078783 C 47.982086,13.900164 47.261154,13.542925 46.900696,13.364306 C 46.473862,13.607973 45.620178,14.095293 45.193344,14.338946 C 40.755401,18.475268 34.609939,15.461016 29.357696,16.901629 C 25.385284,17.839968 21.345398,19.042696 17.219238,18.412829 C 17.413284,15.41823 18.135605,12.363268 17.293472,9.4015981 C 16.688446,8.5610221 16.00441,7.7909111 15.241394,7.0912651 C 13.156097,5.4213891 9.4178616,4.4928611 7.8972926,7.3509701 C 7.6262206,7.8218251 7.0840606,8.7635371 6.8129726,9.2343921 C 8.7762446,9.3178431 10.956528,8.5320001 12.735779,9.6729301 C 11.665481,11.545138 9.8495016,12.822756 8.6740866,14.614275 C 8.4866026,16.35277 8.7746726,18.091418 8.9695586,19.815645 C 8.6287986,19.099688 7.0977316,16.850191 6.5812376,18.617281 C 6.2350616,20.133852 7.6895596,21.447573 9.0947866,20.627367 C 9.6355436,21.084398 10.17157,21.547274 10.702865,22.015993 C 10.674301,22.342623 10.617187,22.995852 10.588623,23.322481 C 14.725983,23.459017 18.871078,23.428072 23.0103,23.37784 C 26.765076,23.331057 30.23703,21.676211 33.937454,21.26578 C 37.237717,20.911272 40.580505,21.018816 43.871338,21.426623 C 43.759842,21.86841 43.536865,22.752001 43.425369,23.193789 C 38.78302,23.914599 33.194031,21.007601 29.352844,24.763842 L 29.738052,25.267611 C 31.209656,26.84955 32.28215,28.716768 32.928253,30.778902 C 34.113479,34.373385 37.051193,36.992922 38.501129,40.452868 C 37.305572,41.205614 36.102402,41.948199 34.84433,42.59273 C 33.620819,42.336306 32.401245,42.058977 31.165283,41.873903 C 30.072281,42.932589 31.551666,44.248781 31.849716,45.350451 C 31.258575,47.141802 30.024505,48.870867 30.590195,50.847933 C 31.710495,57.451967 30.713898,64.144381 30.524139,70.782305 C 30.639877,73.638735 29.184265,76.106768 28.178543,78.671786 C 27.816559,82.699648 28.606491,86.724474 28.481796,90.758776 C 28.110306,90.66083 27.367325,90.464937 26.995819,90.366991 C 26.514633,86.790591 26.129608,83.17763 26.154373,79.565996 C 26.637909,75.464495 28.470596,71.607699 28.534073,67.434328 C 28.702194,61.372408 28.963989,55.253756 27.932114,49.248232 C 27.46991,46.513781 27.239639,43.102328 29.604874,41.139788 C 31.369949,40.333315 33.270126,39.880114 35.087662,39.208803 C 34.371551,37.459215 33.239181,35.929552 32.03064,34.493365 C 29.445953,31.754427 29.45639,27.69472 27.796661,24.450609 C 21.720459,23.468569 15.515396,24.66469 9.4149926,23.927996 C 5.1520076,20.460406 3.3758846,14.198275 4.5036466,8.8869041 z "
       id="path16"
       style="fill:#8c8ffe;fill-rule:nonzero;stroke:none" />
    <path
       d="M 7.8972926,7.3509701 C 9.4178616,4.4928611 13.156097,5.4213891 15.241394,7.0912651 C 12.807922,6.4499991 10.253082,6.3528461 7.8972926,7.3509701 z "
       id="path18"
       style="fill:none;stroke:#5e5eff;stroke-width:0.1;stroke-linecap:butt;stroke-linejoin:miter;stroke-miterlimit:10" />
    <path
       d="M 7.8972926,7.3509701 C 9.4178616,4.4928611 13.156097,5.4213891 15.241394,7.0912651 C 12.807922,6.4499991 10.253082,6.3528461 7.8972926,7.3509701 z "
       id="path20"
       style="fill:#5e5eff;fill-rule:nonzero;stroke:none" />
    <path
       d="M 17.293472,9.4015981 C 18.135605,12.363268 17.413284,15.41823 17.219238,18.412829 C 21.345398,19.042696 25.385284,17.839968 29.357696,16.901629 C 34.609939,15.461016 40.755401,18.475268 45.193344,14.338946 C 44.709549,15.380419 44.200363,16.409014 43.665771,17.424731 C 38.725403,17.84183 33.660385,16.876925 28.818191,18.290423 C 24.023407,19.678362 19.045288,20.309267 14.059799,20.356371 C 15.586166,16.851961 17.191086,13.298296 17.293472,9.4015981 z "
       id="path26"
       style="fill:none;stroke:#5e5eff;stroke-width:0.1;stroke-linecap:butt;stroke-linejoin:miter;stroke-miterlimit:10" />
    <path
       d="M 17.293472,9.4015981 C 18.135605,12.363268 17.413284,15.41823 17.219238,18.412829 C 21.345398,19.042696 25.385284,17.839968 29.357696,16.901629 C 34.609939,15.461016 40.755401,18.475268 45.193344,14.338946 C 44.709549,15.380419 44.200363,16.409014 43.665771,17.424731 C 38.725403,17.84183 33.660385,16.876925 28.818191,18.290423 C 24.023407,19.678362 19.045288,20.309267 14.059799,20.356371 C 15.586166,16.851961 17.191086,13.298296 17.293472,9.4015981 z "
       id="path28"
       style="fill:#5e5eff;fill-rule:nonzero;stroke:none" />
    <path
       d="M 48.342544,14.078783 C 49.981018,16.384951 49.578522,19.324938 50.123306,21.961992 C 53.947143,22.986086 59.379196,21.406573 61.821442,25.311083 C 57.259125,24.197573 52.567901,24.251833 47.909851,24.318926 C 48.147964,20.909701 48.992477,17.497347 48.342544,14.078783 z "
       id="path30"
       style="fill:none;stroke:#5e5eff;stroke-width:0.1;stroke-linecap:butt;stroke-linejoin:miter;stroke-miterlimit:10" />
    <path
       d="M 48.342544,14.078783 C 49.981018,16.384951 49.578522,19.324938 50.123306,21.961992 C 53.947143,22.986086 59.379196,21.406573 61.821442,25.311083 C 57.259125,24.197573 52.567901,24.251833 47.909851,24.318926 C 48.147964,20.909701 48.992477,17.497347 48.342544,14.078783 z "
       id="path32"
       style="fill:#5e5eff;fill-rule:nonzero;stroke:none" />
    <path
       d="M 6.5812376,18.617281 C 7.0977316,16.850191 8.6287986,19.099688 8.9695586,19.815645 L 9.0947866,20.627367 C 7.6895596,21.447573 6.2350616,20.133852 6.5812376,18.617281 z "
       id="path34"
       style="fill:none;stroke:#5e5eff;stroke-width:0.1;stroke-linecap:butt;stroke-linejoin:miter;stroke-miterlimit:10" />
    <path
       d="M 6.5812376,18.617281 C 7.0977316,16.850191 8.6287986,19.099688 8.9695586,19.815645 L 9.0947866,20.627367 C 7.6895596,21.447573 6.2350616,20.133852 6.5812376,18.617281 z "
       id="path36"
       style="fill:#5e5eff;fill-rule:nonzero;stroke:none" />
    <path
       d="M 27.57875,21.292284 C 33.187637,19.561007 39.128097,19.522051 44.937637,19.797091 C 45.11737,21.473009 45.165008,23.159548 45.192245,24.844362 C 40.03862,25.024981 34.844864,24.213915 29.738052,25.267611 L 29.352844,24.763842 C 33.194031,21.007601 38.78302,23.914599 43.425369,23.193789 C 43.536865,22.752001 43.759842,21.86841 43.871338,21.426623 C 40.580505,21.018816 37.237717,20.911272 33.937454,21.26578 C 30.23703,21.676211 26.765076,23.331057 23.0103,23.37784 C 18.871078,23.428072 14.725983,23.459017 10.588623,23.322481 C 10.617187,22.995852 10.674301,22.342623 10.702865,22.015993 C 16.325546,22.27933 22.105163,23.035265 27.57875,21.292284 z "
       id="path38"
       style="fill:none;stroke:#5e5eff;stroke-width:0.1;stroke-linecap:butt;stroke-linejoin:miter;stroke-miterlimit:10" />
    <path
       d="M 58.734909,31.429217 C 59.456406,29.490481 60.216507,27.522677 61.7491,26.062304 C 61.881515,31.164965 58.256286,34.995302 56.071335,39.254061 C 57.324219,40.004473 58.56871,40.770601 59.83403,41.503206 C 58.496323,41.569185 57.160187,41.649599 55.825638,41.744463 C 54.894913,41.27672 53.979034,40.783404 53.077988,40.264483 C 54.814453,37.223238 57.486435,34.751223 58.734909,31.429217 z "
       id="path46"
       style="fill:none;stroke:#5e5eff;stroke-width:0.1;stroke-linecap:butt;stroke-linejoin:miter;stroke-miterlimit:10" />
    <path
       d="M 58.734909,31.429217 C 59.456406,29.490481 60.216507,27.522677 61.7491,26.062304 C 61.881515,31.164965 58.256286,34.995302 56.071335,39.254061 C 57.324219,40.004473 58.56871,40.770601 59.83403,41.503206 C 58.496323,41.569185 57.160187,41.649599 55.825638,41.744463 C 54.894913,41.27672 53.979034,40.783404 53.077988,40.264483 C 54.814453,37.223238 57.486435,34.751223 58.734909,31.429217 z "
       id="path48"
       style="fill:#5e5eff;fill-rule:nonzero;stroke:none" />
    <path
       d="M 32.03064,34.493365 C 33.239181,35.929552 34.371551,37.459215 35.087662,39.208803 C 33.270126,39.880114 31.369949,40.333315 29.604874,41.139788 C 27.239639,43.102328 27.46991,46.513781 27.932114,49.248232 C 28.963989,55.253756 28.702194,61.372408 28.534073,67.434328 C 28.470596,71.607699 26.637909,75.464495 26.154373,79.565996 C 26.129608,83.17763 26.514633,86.790591 26.995819,90.366991 C 27.367325,90.464937 28.110306,90.66083 28.481796,90.758776 C 28.606491,86.724474 27.816559,82.699648 28.178543,78.671786 C 29.184265,76.106768 30.639877,73.638735 30.524139,70.782305 C 30.713898,64.144381 31.710495,57.451967 30.590195,50.847933 C 30.024505,48.870867 31.258575,47.141802 31.849716,45.350451 C 31.551666,44.248781 30.072281,42.932589 31.165283,41.873903 C 32.401245,42.058977 33.620819,42.336306 34.84433,42.59273 C 34.216873,43.466234 33.620071,44.361925 33.062515,45.282229 C 35.970947,45.54735 38.891891,45.567065 41.809936,45.496828 C 40.939331,44.816942 40.042908,44.173052 39.164749,43.505526 C 43.271103,43.043734 47.590958,42.457262 51.572861,43.917269 C 53.721435,44.512255 55.967438,46.107668 58.177475,44.794085 C 57.448425,43.735186 56.653046,42.725481 55.825638,41.744463 C 57.160187,41.649599 58.496323,41.569185 59.83403,41.503206 C 59.217255,43.450548 58.563003,45.408037 58.205047,47.422655 C 59.541199,47.932619 60.872803,48.469683 62.278244,48.769167 C 61.994156,47.851916 61.756088,46.923372 61.564026,45.983492 C 63.106369,46.866305 65.643082,47.773134 64.651504,50.051501 C 62.522354,59.47661 65.337738,69.002581 64.894592,78.497286 C 64.769913,82.434756 64.778778,86.901705 67.985046,89.741732 C 67.6725,83.309023 66.17392,76.97864 66.228668,70.519915 C 66.352554,63.969286 65.98146,57.405688 66.58316,50.870852 C 67.085281,48.08565 65.268402,45.732012 63.903198,43.502657 C 65.497589,44.900118 67.260071,46.437624 67.590729,48.662218 C 67.206924,51.932619 66.298202,55.157625 66.548157,58.486407 C 66.836532,64.648623 66.043609,70.878573 67.213318,76.979616 C 67.854736,80.213747 67.331818,83.6234 68.497299,86.758166 C 68.809479,88.264117 70.017868,90.037829 68.88504,91.476565 C 67.229233,93.509295 64.300201,93.108278 61.972397,93.222628 C 51.31102,93.07152 40.647186,93.156191 29.986786,93.154955 C 27.388397,93.521517 25.81897,90.811709 26.275558,88.509875 C 26.654404,84.702654 24.456177,80.915087 25.80101,77.206911 C 28.975372,67.99602 28.951156,57.948473 27.265579,48.44649 C 27.103744,45.760164 26.867615,42.601855 28.821045,40.457339 C 30.081818,39.758257 31.579742,39.725908 32.936172,39.295153 C 33.370254,37.640978 32.417236,36.059252 32.03064,34.493365 z "
       id="path50"
       style="fill:none;stroke:#b5b5ff;stroke-width:0.1;stroke-linecap:butt;stroke-linejoin:miter;stroke-miterlimit:10" />
    <path
       d="M 32.03064,34.493365 C 33.239181,35.929552 34.371551,37.459215 35.087662,39.208803 C 33.270126,39.880114 31.369949,40.333315 29.604874,41.139788 C 27.239639,43.102328 27.46991,46.513781 27.932114,49.248232 C 28.963989,55.253756 28.702194,61.372408 28.534073,67.434328 C 28.470596,71.607699 26.637909,75.464495 26.154373,79.565996 C 26.129608,83.17763 26.514633,86.790591 26.995819,90.366991 C 27.367325,90.464937 28.110306,90.66083 28.481796,90.758776 C 28.606491,86.724474 27.816559,82.699648 28.178543,78.671786 C 29.184265,76.106768 30.639877,73.638735 30.524139,70.782305 C 30.713898,64.144381 31.710495,57.451967 30.590195,50.847933 C 30.024505,48.870867 31.258575,47.141802 31.849716,45.350451 C 31.551666,44.248781 30.072281,42.932589 31.165283,41.873903 C 32.401245,42.058977 33.620819,42.336306 34.84433,42.59273 C 34.216873,43.466234 33.620071,44.361925 33.062515,45.282229 C 35.970947,45.54735 38.891891,45.567065 41.809936,45.496828 C 40.939331,44.816942 40.042908,44.173052 39.164749,43.505526 C 43.271103,43.043734 47.590958,42.457262 51.572861,43.917269 C 53.721435,44.512255 55.967438,46.107668 58.177475,44.794085 C 57.448425,43.735186 56.653046,42.725481 55.825638,41.744463 C 57.160187,41.649599 58.496323,41.569185 59.83403,41.503206 C 59.217255,43.450548 58.563003,45.408037 58.205047,47.422655 C 59.541199,47.932619 60.872803,48.469683 62.278244,48.769167 C 61.994156,47.851916 61.756088,46.923372 61.564026,45.983492 C 63.106369,46.866305 65.643082,47.773134 64.651504,50.051501 C 62.522354,59.47661 65.337738,69.002581 64.894592,78.497286 C 64.769913,82.434756 64.778778,86.901705 67.985046,89.741732 C 67.6725,83.309023 66.17392,76.97864 66.228668,70.519915 C 66.352554,63.969286 65.98146,57.405688 66.58316,50.870852 C 67.085281,48.08565 65.268402,45.732012 63.903198,43.502657 C 65.497589,44.900118 67.260071,46.437624 67.590729,48.662218 C 67.206924,51.932619 66.298202,55.157625 66.548157,58.486407 C 66.836532,64.648623 66.043609,70.878573 67.213318,76.979616 C 67.854736,80.213747 67.331818,83.6234 68.497299,86.758166 C 68.809479,88.264117 70.017868,90.037829 68.88504,91.476565 C 67.229233,93.509295 64.300201,93.108278 61.972397,93.222628 C 51.31102,93.07152 40.647186,93.156191 29.986786,93.154955 C 27.388397,93.521517 25.81897,90.811709 26.275558,88.509875 C 26.654404,84.702654 24.456177,80.915087 25.80101,77.206911 C 28.975372,67.99602 28.951156,57.948473 27.265579,48.44649 C 27.103744,45.760164 26.867615,42.601855 28.821045,40.457339 C 30.081818,39.758257 31.579742,39.725908 32.936172,39.295153 C 33.370254,37.640978 32.417236,36.059252 32.03064,34.493365 z "
       id="path52"
       style="fill:#b5b5ff;fill-rule:nonzero;stroke:none" />
    <path
       d="M 28.888656,91.625262 C 41.550339,90.870501 54.258438,90.806826 66.944885,90.80234 C 66.600632,91.137316 65.91214,91.807238 65.567886,92.142199 C 53.379562,92.803637 41.117493,93.030947 28.914245,92.607485 L 28.888656,91.625262 z "
       id="path54"
       style="fill:none;stroke:#5e5eff;stroke-width:0.1;stroke-linecap:butt;stroke-linejoin:miter;stroke-miterlimit:10" />
    <path
       d="M 28.888656,91.625262 C 41.550339,90.870501 54.258438,90.806826 66.944885,90.80234 C 66.600632,91.137316 65.91214,91.807238 65.567886,92.142199 C 53.379562,92.803637 41.117493,93.030947 28.914245,92.607485 L 28.888656,91.625262 z "
       id="path56"
       style="fill:#5e5eff;fill-rule:nonzero;stroke:none" />
  </g>
</svg>
